<?xml version="1.0" encoding="UTF-8"?>
<svg id="Layer_1" xmlns="http://www.w3.org/2000/svg" version="1.1" viewBox="0 0 36.89 31.62">
  <!-- Generator: Adobe Illustrator 29.3.1, SVG Export Plug-In . SVG Version: 2.1.0 Build 151)  -->
  <path d="M0,2.63C0,1.18,1.18,0,2.63,0h31.62c1.46,0,2.63,1.18,2.63,2.63s-1.18,2.63-2.63,2.63H2.63c-1.46,0-2.63-1.18-2.63-2.63ZM0,15.81c0-1.46,1.18-2.63,2.63-2.63h31.62c1.46,0,2.63,1.18,2.63,2.63s-1.18,2.63-2.63,2.63H2.63c-1.46,0-2.63-1.18-2.63-2.63ZM36.89,28.98c0,1.46-1.18,2.63-2.63,2.63H2.63c-1.46,0-2.63-1.18-2.63-2.63s1.18-2.63,2.63-2.63h31.62c1.46,0,2.63,1.18,2.63,2.63Z"/>
</svg>