<?xml version="1.0" encoding="UTF-8"?>
<svg id="Layer_1" data-name="Layer 1" xmlns="http://www.w3.org/2000/svg" xmlns:xlink="http://www.w3.org/1999/xlink" viewBox="0 0 176.61 84.64">
  <defs>
    <style>
      .cls-1 {
        fill: none;
      }

      .cls-2 {
        fill-rule: evenodd;
      }

      .cls-2, .cls-3 {
        fill: #f04a3f;
      }

      .cls-4 {
        fill: #fdb515;
      }

      .cls-5 {
        fill: url(#linear-gradient-8);
      }

      .cls-6 {
        fill: url(#linear-gradient-7);
      }

      .cls-7 {
        fill: url(#linear-gradient-5);
      }

      .cls-8 {
        fill: url(#linear-gradient-6);
      }

      .cls-9 {
        fill: url(#linear-gradient-9);
      }

      .cls-10 {
        fill: url(#linear-gradient-4);
      }

      .cls-11 {
        fill: url(#linear-gradient-3);
      }

      .cls-12 {
        fill: url(#linear-gradient-2);
      }

      .cls-13 {
        fill: url(#linear-gradient);
      }

      .cls-14 {
        fill: #686d73;
      }

      .cls-15 {
        clip-path: url(#clippath-1);
      }

      .cls-16 {
        clip-path: url(#clippath-3);
      }

      .cls-17 {
        clip-path: url(#clippath-4);
      }

      .cls-18 {
        clip-path: url(#clippath-2);
      }

      .cls-19 {
        clip-path: url(#clippath-7);
      }

      .cls-20 {
        clip-path: url(#clippath-6);
      }

      .cls-21 {
        clip-path: url(#clippath-9);
      }

      .cls-22 {
        clip-path: url(#clippath-8);
      }

      .cls-23 {
        clip-path: url(#clippath-5);
      }

      .cls-24 {
        clip-path: url(#clippath);
      }
    </style>
    <clipPath id="clippath">
      <rect class="cls-1" x="7.39" y="2.06" width="169.22" height="82.58"/>
    </clipPath>
    <clipPath id="clippath-1">
      <polygon class="cls-1" points="23.53 3.32 18.74 6.21 18.74 29.52 23.47 29.52 23.47 25.26 25.61 25.26 25.61 2.06 23.53 3.32"/>
    </clipPath>
    <linearGradient id="linear-gradient" x1="-234.24" y1="308.45" x2="-233.24" y2="308.45" gradientTransform="translate(-4486.06 -5921.88) rotate(-180) scale(19.25 -19.25)" gradientUnits="userSpaceOnUse">
      <stop offset="0" stop-color="#fee652"/>
      <stop offset=".09" stop-color="#fddf50"/>
      <stop offset=".21" stop-color="#fcce4e"/>
      <stop offset=".35" stop-color="#f9b249"/>
      <stop offset=".5" stop-color="#f68c42"/>
      <stop offset=".51" stop-color="#f68942"/>
      <stop offset=".59" stop-color="#f58448"/>
      <stop offset=".7" stop-color="#f2785b"/>
      <stop offset=".82" stop-color="#ee637a"/>
      <stop offset=".93" stop-color="#ea5098"/>
      <stop offset="1" stop-color="#ea5098"/>
    </linearGradient>
    <clipPath id="clippath-2">
      <polygon class="cls-1" points="23.51 48.93 23.51 48.93 23.51 51.81 25.61 51.81 25.61 48.93 25.61 48.93 23.51 48.93"/>
    </clipPath>
    <linearGradient id="linear-gradient-2" y1="308.48" y2="308.48" gradientTransform="translate(-4475.01 -5888.05) rotate(-180) scale(19.25 -19.25)" xlink:href="#linear-gradient"/>
    <clipPath id="clippath-3">
      <rect class="cls-1" x="11.99" y="47.47" width="3.18" height="3.2"/>
    </clipPath>
    <linearGradient id="linear-gradient-3" y1="308.48" y2="308.48" gradientTransform="translate(-4475.99 -5889.33) rotate(180) scale(19.25 -19.25)" xlink:href="#linear-gradient"/>
    <clipPath id="clippath-4">
      <polygon class="cls-1" points="7.39 18.05 7.39 37.29 12.13 37.29 12.13 33.03 16.36 33.03 16.36 12.65 7.39 18.05"/>
    </clipPath>
    <linearGradient id="linear-gradient-4" y1="308.45" y2="308.45" gradientTransform="translate(-4483.69 -5912.7) rotate(-180) scale(19.25 -19.25)" xlink:href="#linear-gradient"/>
    <clipPath id="clippath-5">
      <rect class="cls-1" x="23.27" y="38.62" width="2.34" height="3.72"/>
    </clipPath>
    <linearGradient id="linear-gradient-5" y1="308.48" y2="308.48" gradientTransform="translate(-4478.12 -5897.96) rotate(-180) scale(19.25 -19.25)" xlink:href="#linear-gradient"/>
    <clipPath id="clippath-6">
      <rect class="cls-1" x="18.96" y="34.02" width="3.88" height="3.91"/>
    </clipPath>
    <linearGradient id="linear-gradient-6" y1="308.48" y2="308.48" gradientTransform="translate(-4479.73 -5902.45) rotate(-180) scale(19.25 -19.25)" xlink:href="#linear-gradient"/>
    <clipPath id="clippath-7">
      <polygon class="cls-1" points="23.45 29.82 23.45 29.82 23.45 34.25 25.61 34.25 25.61 29.82 23.45 29.82"/>
    </clipPath>
    <linearGradient id="linear-gradient-7" y1="308.48" y2="308.48" gradientTransform="translate(-4480.84 -5906.36) rotate(180) scale(19.25 -19.25)" xlink:href="#linear-gradient"/>
    <clipPath id="clippath-8">
      <rect class="cls-1" x="12.14" y="37.37" width="4.4" height="4.43"/>
    </clipPath>
    <linearGradient id="linear-gradient-8" y1="308.48" y2="308.48" gradientTransform="translate(-4478.96 -5898.82) rotate(180) scale(19.25 -19.25)" xlink:href="#linear-gradient"/>
    <clipPath id="clippath-9">
      <rect class="cls-1" x="8.23" y="42.25" width="3.68" height="3.7"/>
    </clipPath>
    <linearGradient id="linear-gradient-9" y1="308.48" y2="308.48" gradientTransform="translate(-4477.73 -5894.31) rotate(-180) scale(19.25 -19.25)" xlink:href="#linear-gradient"/>
  </defs>
  <g class="cls-24">
    <path class="cls-3" d="M57.3,18.95h6.71l6.56,20.13c.39,1.17.73,2.29,1,3.35.28,1.06.5,1.82.66,2.28h.1c.13-.46.35-1.22.66-2.28.31-1.06.66-2.18,1.05-3.35l6.76-20.13h6.66l4.51,32.62h-7.05l-2.1-16.85c-.16-1.21-.29-2.22-.37-3.04-.08-.82-.14-1.39-.17-1.71h-.1c-.07.36-.21.95-.44,1.79-.23.83-.52,1.79-.88,2.87l-5.53,16.95h-6.81l-5.53-16.9c-.33-1.04-.61-2-.83-2.86-.23-.86-.39-1.48-.49-1.84h-.1c-.03.36-.08.98-.15,1.86-.07.88-.16,1.86-.29,2.94l-2.11,16.8h-6.22l4.51-32.62Z"/>
    <polygon class="cls-3" points="95.11 18.95 113.91 18.95 113.91 24.63 101.91 24.63 101.91 31.98 112.49 31.98 112.49 37.36 101.91 37.36 101.91 45.89 114.26 45.89 114.26 51.57 95.11 51.57 95.11 18.95"/>
    <path class="cls-3" d="M126.89,52.15c-1.34,0-2.55-.11-3.62-.34-1.08-.23-2.03-.51-2.86-.83-.83-.33-1.55-.68-2.15-1.05-.61-.38-1.09-.71-1.45-1l2.94-4.8c.2.13.49.33.88.61.39.28.88.55,1.47.81.59.26,1.27.5,2.06.71.78.21,1.65.32,2.6.32,1.66,0,2.95-.37,3.85-1.1.9-.73,1.35-1.62,1.35-2.67,0-.72-.2-1.33-.61-1.84-.41-.51-.95-.96-1.62-1.35s-1.45-.77-2.33-1.15c-.88-.38-1.8-.81-2.74-1.3-1.01-.49-1.94-1.03-2.79-1.62-.85-.59-1.59-1.26-2.2-2.01-.62-.75-1.11-1.62-1.47-2.62-.36-1-.54-2.16-.54-3.5s.28-2.66.83-3.77c.55-1.11,1.31-2.06,2.25-2.84.95-.78,2.06-1.39,3.33-1.81,1.27-.42,2.64-.64,4.11-.64,1.34,0,2.52.1,3.55.29,1.03.2,1.93.43,2.72.71.78.28,1.44.57,1.96.88.52.31.96.6,1.32.86l-2.79,4.85c-.29-.2-.65-.41-1.08-.64-.42-.23-.92-.44-1.47-.64-.55-.2-1.16-.37-1.81-.52-.65-.15-1.32-.22-2.01-.22-1.34,0-2.4.29-3.18.86-.78.57-1.18,1.41-1.18,2.52,0,.65.15,1.2.47,1.64.31.44.73.84,1.27,1.2.54.36,1.17.7,1.91,1.03.73.33,1.53.69,2.38,1.08,1.08.49,2.12,1.01,3.14,1.57,1.01.55,1.9,1.22,2.67,2.01s1.39,1.71,1.86,2.77c.47,1.06.71,2.34.71,3.85s-.27,2.81-.81,4.02c-.54,1.21-1.31,2.23-2.33,3.06-1.01.83-2.24,1.48-3.7,1.93-1.45.46-3.08.69-4.87.69"/>
    <path class="cls-3" d="M151.48,18.95h6.66l12.78,32.62h-7.54l-2.2-6.12h-13.03l-2.16,6.12h-6.95l12.44-32.62ZM159.22,39.91l-2.79-7.79c-.52-1.4-.91-2.6-1.15-3.6-.24-1-.45-1.67-.61-2.03h-.1c-.13.39-.33,1.09-.61,2.11-.28,1.01-.64,2.19-1.1,3.53l-2.79,7.79h9.16Z"/>
    <path class="cls-14" d="M12.47,61.09h1.83l1.79,5.49c.11.32.2.63.27.92.08.29.14.5.18.62h.03c.04-.12.1-.33.18-.62.08-.29.18-.6.29-.92l1.85-5.49h1.82l1.23,8.9h-1.93l-.57-4.6c-.05-.33-.08-.61-.1-.83-.02-.22-.04-.38-.05-.47h-.03c-.02.1-.06.26-.12.49-.06.23-.14.49-.24.78l-1.51,4.63h-1.86l-1.51-4.61c-.09-.29-.17-.55-.23-.78-.06-.24-.11-.4-.13-.5h-.03c0,.1-.02.27-.04.51-.02.24-.05.51-.08.8l-.58,4.59h-1.7l1.23-8.9Z"/>
    <path class="cls-14" d="M24.89,70.16c-.28,0-.53-.04-.78-.12-.24-.08-.45-.2-.62-.35-.17-.16-.31-.35-.41-.58-.1-.23-.15-.49-.15-.78,0-.43.1-.79.3-1.08.2-.29.46-.53.79-.71.32-.18.7-.31,1.12-.39.42-.08.84-.12,1.27-.12h.23v-.38c0-.31-.08-.54-.23-.69s-.43-.22-.82-.22c-.36,0-.67.07-.95.19s-.51.27-.71.42l-.77-1.08c.26-.24.61-.46,1.05-.65.44-.19.97-.29,1.58-.29.89,0,1.55.18,1.98.55s.64.99.64,1.85v2.34c0,.45.02.83.06,1.14.04.32.08.58.13.78h-1.75c-.03-.08-.05-.19-.07-.33-.02-.14-.03-.26-.04-.36-.18.21-.42.41-.73.59-.31.18-.68.27-1.1.27M25.43,68.86c.28,0,.51-.05.7-.17.19-.11.36-.25.5-.41v-1.18h-.23c-.53,0-.95.08-1.28.25-.32.17-.49.44-.49.82,0,.24.08.41.24.52.16.11.34.16.55.16"/>
    <path class="cls-14" d="M32.55,70.16c-.77,0-1.3-.18-1.6-.55-.3-.37-.46-.86-.46-1.48v-3.32h-1.04v-1.32h1.04v-1.89h1.77v1.89h1.52v1.32h-1.52v2.97c0,.32.05.55.14.7.09.15.27.22.52.22.2,0,.37-.03.52-.09.15-.06.26-.11.33-.15l.41,1.32c-.13.07-.34.15-.61.24-.27.09-.61.13-1.02.13"/>
    <path class="cls-14" d="M35.21,60.37h1.78v3.9c.08-.09.18-.19.31-.3.12-.11.27-.21.43-.31.17-.09.35-.17.57-.24.21-.07.46-.1.72-.1.36,0,.66.05.91.16.25.11.45.25.6.44.15.19.26.41.33.67.07.26.11.54.11.84v4.56h-1.78v-4.2c0-.33-.07-.58-.19-.74-.13-.16-.35-.25-.66-.25-.18,0-.34.03-.49.1-.15.07-.28.15-.39.24-.12.09-.21.18-.29.27-.08.09-.14.16-.17.2v4.37h-1.78v-9.62Z"/>
    <rect class="cls-4" x="44.82" y="65.65" width="2.19" height="2.19"/>
    <polygon class="cls-14" points="51.14 61.09 56.27 61.09 56.27 62.64 52.99 62.64 52.99 64.65 55.88 64.65 55.88 66.12 52.99 66.12 52.99 68.45 56.36 68.45 56.36 70 51.14 70 51.14 61.09"/>
    <path class="cls-14" d="M57.87,63.49h1.74v.82c.23-.28.52-.51.86-.7.34-.19.74-.28,1.22-.28.36,0,.66.05.9.16.24.11.45.25.6.44.16.19.27.41.34.67.07.26.11.54.11.84v4.56h-1.78v-4.2c0-.33-.07-.58-.19-.74s-.35-.25-.67-.25c-.14,0-.28.02-.42.07-.13.05-.26.11-.37.19-.11.08-.22.17-.31.27s-.18.19-.24.28v4.37h-1.78v-6.51Z"/>
    <path class="cls-14" d="M67.7,73.19c-.9,0-1.6-.14-2.11-.43-.5-.29-.76-.72-.76-1.31,0-.37.1-.68.31-.94.2-.26.47-.48.79-.65-.18-.11-.32-.24-.42-.4-.1-.16-.15-.36-.15-.59,0-.3.07-.55.21-.75.14-.2.31-.36.51-.48-.38-.21-.66-.48-.86-.81-.2-.33-.29-.71-.29-1.14,0-.35.07-.67.2-.96.13-.29.32-.54.57-.75.24-.21.55-.37.9-.48.36-.11.76-.17,1.22-.17s.82.05,1.16.16h2.37v1.16h-.9c.18.31.27.66.27,1.04,0,.69-.24,1.26-.72,1.7-.48.44-1.17.65-2.09.65-.13,0-.27,0-.39-.01-.13,0-.26-.02-.38-.04-.16.1-.24.22-.24.37,0,.18.1.3.3.35.2.05.54.09,1.01.12.34.02.69.04,1.05.07s.69.11.99.23c.3.12.54.32.73.58.19.26.29.63.29,1.12,0,.35-.08.66-.25.95-.17.29-.41.53-.73.74-.32.21-.69.37-1.13.49-.44.12-.92.17-1.46.17M67.81,72c.54,0,.96-.09,1.26-.27.29-.18.44-.41.44-.69,0-.17-.04-.3-.11-.39-.08-.09-.18-.16-.31-.21-.13-.05-.3-.07-.49-.09-.19-.01-.41-.03-.65-.05-.15-.02-.3-.03-.46-.04-.15,0-.3-.03-.44-.05-.34.24-.51.54-.51.91,0,.26.1.47.29.63.2.17.52.25.98.25M67.83,66.89c.37,0,.66-.11.87-.32.2-.21.31-.51.31-.88s-.1-.68-.31-.89c-.21-.21-.49-.31-.87-.31s-.66.1-.87.31c-.2.21-.31.51-.31.89s.1.67.31.88c.21.21.49.32.87.32"/>
    <path class="cls-14" d="M73.5,62.64c-.31,0-.57-.11-.77-.32-.2-.21-.31-.46-.31-.75s.1-.53.31-.74c.2-.2.46-.31.77-.31s.57.1.78.31c.21.21.31.45.31.74s-.11.53-.31.75c-.21.21-.47.32-.78.32M72.61,63.49h1.79v6.51h-1.79v-6.51Z"/>
    <path class="cls-14" d="M76.24,63.49h1.74v.82c.23-.28.52-.51.86-.7.34-.19.74-.28,1.22-.28.36,0,.66.05.9.16.24.11.45.25.6.44.16.19.27.41.34.67.07.26.11.54.11.84v4.56h-1.78v-4.2c0-.33-.07-.58-.19-.74s-.35-.25-.67-.25c-.14,0-.28.02-.42.07-.13.05-.26.11-.37.19-.11.08-.22.17-.31.27s-.18.19-.24.28v4.37h-1.78v-6.51Z"/>
    <path class="cls-14" d="M86.63,70.16c-.54,0-1.03-.08-1.45-.25-.42-.17-.78-.4-1.07-.7-.29-.3-.51-.67-.66-1.09-.15-.42-.23-.89-.23-1.41s.08-.98.25-1.4c.17-.41.39-.77.68-1.06.29-.29.63-.52,1.02-.68.39-.16.82-.24,1.27-.24.93,0,1.63.28,2.11.84.48.56.72,1.35.72,2.37,0,.1,0,.2,0,.3,0,.1-.01.21-.02.31h-4.12c.04.48.2.88.45,1.2.26.32.66.48,1.2.48.45,0,.8-.06,1.06-.17.26-.11.47-.21.63-.29l.58,1.15c-.11.06-.23.13-.37.2-.14.07-.31.14-.5.2-.19.06-.42.12-.67.16-.26.05-.55.07-.88.07M87.54,65.95c0-.19-.02-.36-.07-.52-.05-.16-.11-.3-.19-.42-.08-.12-.2-.22-.34-.29-.14-.07-.32-.11-.52-.11-.38,0-.68.12-.89.35-.21.23-.35.56-.42.99h2.43Z"/>
    <path class="cls-14" d="M93.57,70.16c-.54,0-1.03-.08-1.45-.25s-.78-.4-1.07-.7c-.29-.3-.51-.67-.66-1.09-.15-.42-.23-.89-.23-1.41s.08-.98.25-1.4c.17-.41.39-.77.68-1.06.29-.29.63-.52,1.02-.68.39-.16.82-.24,1.27-.24.93,0,1.63.28,2.11.84.48.56.72,1.35.72,2.37,0,.1,0,.2,0,.3,0,.1-.01.21-.02.31h-4.12c.04.48.2.88.45,1.2.26.32.66.48,1.2.48.45,0,.8-.06,1.06-.17.26-.11.47-.21.63-.29l.58,1.15c-.11.06-.23.13-.38.2-.14.07-.31.14-.5.2-.19.06-.42.12-.67.16-.26.05-.55.07-.88.07M94.48,65.95c0-.19-.02-.36-.07-.52-.05-.16-.11-.3-.19-.42-.08-.12-.2-.22-.34-.29-.14-.07-.32-.11-.52-.11-.38,0-.68.12-.89.35-.21.23-.35.56-.42.99h2.43Z"/>
    <path class="cls-14" d="M97.56,63.49h1.78v.88c.07-.11.16-.24.26-.36.1-.12.22-.24.35-.34.13-.1.29-.19.46-.25.17-.06.36-.09.57-.09.24,0,.43.02.57.05.14.04.24.08.31.12l-.43,1.55c-.05-.04-.13-.07-.24-.1-.11-.03-.25-.05-.44-.05s-.37.04-.53.11c-.16.08-.29.17-.41.27-.12.11-.22.22-.3.33-.08.11-.14.2-.17.27v4.1h-1.78v-6.51Z"/>
    <path class="cls-14" d="M103.78,62.64c-.31,0-.57-.11-.78-.32-.2-.21-.31-.46-.31-.75s.1-.53.31-.74c.21-.2.46-.31.78-.31s.57.1.78.31c.21.21.32.45.32.74s-.11.53-.32.75c-.21.21-.47.32-.78.32M102.89,63.49h1.79v6.51h-1.79v-6.51Z"/>
    <path class="cls-14" d="M106.52,63.49h1.74v.82c.23-.28.52-.51.86-.7.34-.19.74-.28,1.22-.28.36,0,.66.05.9.16.24.11.45.25.6.44.16.19.27.41.34.67.07.26.11.54.11.84v4.56h-1.78v-4.2c0-.33-.07-.58-.19-.74s-.35-.25-.67-.25c-.14,0-.28.02-.42.07-.13.05-.26.11-.37.19-.11.08-.22.17-.31.27-.1.1-.18.19-.24.28v4.37h-1.78v-6.51Z"/>
    <path class="cls-14" d="M116.35,73.19c-.9,0-1.6-.14-2.11-.43-.5-.29-.76-.72-.76-1.31,0-.37.1-.68.31-.94.2-.26.47-.48.79-.65-.18-.11-.32-.24-.42-.4-.1-.16-.15-.36-.15-.59,0-.3.07-.55.21-.75.14-.2.31-.36.51-.48-.38-.21-.66-.48-.86-.81-.2-.33-.29-.71-.29-1.14,0-.35.07-.67.2-.96.13-.29.32-.54.57-.75.24-.21.55-.37.9-.48.36-.11.76-.17,1.22-.17s.82.05,1.16.16h2.37v1.16h-.9c.18.31.27.66.27,1.04,0,.69-.24,1.26-.72,1.7-.48.44-1.17.65-2.09.65-.13,0-.27,0-.39-.01-.13,0-.26-.02-.38-.04-.16.1-.24.22-.24.37,0,.18.1.3.3.35.2.05.54.09,1.01.12.34.02.69.04,1.05.07.36.03.69.11.99.23.3.12.54.32.73.58.19.26.29.63.29,1.12,0,.35-.08.66-.25.95-.17.29-.41.53-.73.74-.32.21-.69.37-1.13.49-.44.12-.92.17-1.46.17M116.45,72c.54,0,.96-.09,1.26-.27.29-.18.44-.41.44-.69,0-.17-.04-.3-.11-.39-.08-.09-.18-.16-.31-.21-.13-.05-.3-.07-.49-.09-.19-.01-.41-.03-.65-.05-.15-.02-.3-.03-.46-.04-.15,0-.3-.03-.44-.05-.34.24-.51.54-.51.91,0,.26.1.47.29.63.2.17.52.25.98.25M116.48,66.89c.37,0,.66-.11.87-.32.2-.21.31-.51.31-.88s-.1-.68-.31-.89c-.21-.21-.49-.31-.87-.31s-.66.1-.87.31c-.2.21-.31.51-.31.89s.1.67.31.88c.21.21.49.32.87.32"/>
    <rect class="cls-4" x="123.3" y="65.65" width="2.19" height="2.19"/>
    <path class="cls-14" d="M131.67,70.16c-.37,0-.7-.03-.99-.09-.29-.06-.55-.14-.78-.23-.23-.09-.42-.18-.59-.29-.17-.1-.3-.19-.39-.27l.8-1.31c.05.04.13.09.24.17.11.08.24.15.4.22.16.07.35.14.56.19.21.06.45.09.71.09.45,0,.8-.1,1.05-.3.25-.2.37-.44.37-.73,0-.2-.06-.36-.17-.5-.11-.14-.26-.26-.44-.37-.18-.11-.39-.21-.63-.31-.24-.1-.49-.22-.75-.35-.28-.13-.53-.28-.76-.44-.23-.16-.43-.34-.6-.55-.17-.2-.3-.44-.4-.71-.1-.27-.15-.59-.15-.96s.08-.73.23-1.03c.15-.3.36-.56.61-.78.26-.21.56-.38.91-.49.35-.12.72-.17,1.12-.17.37,0,.69.03.97.08.28.05.53.12.74.19.21.08.39.16.54.24.14.08.26.16.36.23l-.76,1.32c-.08-.05-.18-.11-.3-.17-.12-.06-.25-.12-.4-.17-.15-.05-.32-.1-.49-.14-.18-.04-.36-.06-.55-.06-.36,0-.65.08-.87.23-.21.16-.32.39-.32.69,0,.18.04.33.13.45.08.12.2.23.35.33s.32.19.52.28c.2.09.42.19.65.29.29.13.58.28.86.43.27.15.52.33.73.55.21.21.38.47.51.76s.19.64.19,1.05-.07.77-.22,1.1c-.15.33-.36.61-.64.84-.28.23-.61.4-1.01.53s-.84.19-1.33.19"/>
    <path class="cls-14" d="M139.17,70.16c-.53,0-1-.08-1.41-.25-.42-.17-.77-.4-1.06-.7-.29-.3-.51-.66-.67-1.08-.16-.41-.23-.88-.23-1.38,0-.54.09-1.03.26-1.46.17-.43.41-.79.71-1.08.3-.29.66-.51,1.08-.66.42-.15.87-.23,1.36-.23.53,0,.96.06,1.28.19.32.12.56.24.71.33l-.57,1.22c-.15-.1-.33-.19-.55-.27-.21-.08-.49-.12-.82-.12-.53,0-.92.18-1.19.55s-.4.86-.4,1.46c0,.3.03.58.1.83.07.25.17.48.3.66.13.19.3.33.51.43.2.1.45.15.72.15.37,0,.68-.05.91-.15.23-.1.4-.19.49-.25l.55,1.19c-.08.05-.18.11-.29.18-.12.07-.26.13-.43.19-.17.06-.37.11-.59.15-.23.05-.49.07-.78.07"/>
    <path class="cls-14" d="M143.39,62.64c-.31,0-.57-.11-.77-.32-.2-.21-.31-.46-.31-.75s.1-.53.31-.74c.21-.2.46-.31.77-.31s.57.1.78.31c.21.21.31.45.31.74s-.1.53-.31.75c-.21.21-.47.32-.78.32M142.5,63.49h1.79v6.51h-1.79v-6.51Z"/>
    <path class="cls-14" d="M149.08,70.16c-.54,0-1.03-.08-1.45-.25-.42-.17-.78-.4-1.07-.7-.29-.3-.51-.67-.66-1.09-.15-.42-.23-.89-.23-1.41s.08-.98.25-1.4c.17-.41.39-.77.68-1.06.29-.29.63-.52,1.02-.68.39-.16.82-.24,1.27-.24.93,0,1.63.28,2.11.84.48.56.72,1.35.72,2.37,0,.1,0,.2,0,.3,0,.1-.01.21-.02.31h-4.12c.04.48.2.88.45,1.2.26.32.66.48,1.2.48.45,0,.8-.06,1.06-.17.26-.11.47-.21.63-.29l.58,1.15c-.11.06-.23.13-.38.2-.14.07-.31.14-.5.2-.19.06-.42.12-.67.16-.26.05-.55.07-.88.07M149.98,65.95c0-.19-.02-.36-.07-.52-.05-.16-.11-.3-.19-.42-.08-.12-.2-.22-.34-.29-.14-.07-.32-.11-.52-.11-.38,0-.68.12-.89.35-.21.23-.35.56-.42.99h2.43Z"/>
    <path class="cls-14" d="M153.07,63.49h1.74v.82c.23-.28.52-.51.86-.7.34-.19.74-.28,1.22-.28.36,0,.66.05.9.16.24.11.45.25.6.44.16.19.27.41.34.67.07.26.11.54.11.84v4.56h-1.78v-4.2c0-.33-.07-.58-.19-.74s-.35-.25-.67-.25c-.14,0-.28.02-.42.07-.13.05-.26.11-.37.19-.11.08-.22.17-.31.27-.1.1-.18.19-.24.28v4.37h-1.78v-6.51Z"/>
    <path class="cls-14" d="M163.42,70.16c-.53,0-1-.08-1.41-.25-.42-.17-.77-.4-1.06-.7-.29-.3-.51-.66-.67-1.08-.16-.41-.23-.88-.23-1.38,0-.54.09-1.03.26-1.46.17-.43.41-.79.71-1.08.3-.29.66-.51,1.08-.66.42-.15.87-.23,1.36-.23.53,0,.96.06,1.28.19.32.12.56.24.71.33l-.57,1.22c-.15-.1-.33-.19-.55-.27-.21-.08-.49-.12-.82-.12-.53,0-.92.18-1.19.55s-.4.86-.4,1.46c0,.3.03.58.1.83.07.25.17.48.3.66.13.19.3.33.51.43.2.1.45.15.72.15.37,0,.68-.05.91-.15.23-.1.4-.19.49-.25l.55,1.19c-.08.05-.18.11-.29.18-.12.07-.26.13-.43.19-.17.06-.37.11-.59.15-.23.05-.49.07-.78.07"/>
    <path class="cls-14" d="M169.47,70.16c-.54,0-1.03-.08-1.45-.25-.42-.17-.78-.4-1.07-.7-.29-.3-.51-.67-.66-1.09-.15-.42-.23-.89-.23-1.41s.08-.98.25-1.4c.17-.41.39-.77.68-1.06.29-.29.63-.52,1.02-.68.39-.16.82-.24,1.27-.24.93,0,1.63.28,2.11.84.48.56.72,1.35.72,2.37,0,.1,0,.2,0,.3,0,.1-.01.21-.02.31h-4.12c.04.48.2.88.45,1.2.26.32.66.48,1.2.48.45,0,.8-.06,1.06-.17.26-.11.47-.21.63-.29l.58,1.15c-.11.06-.23.13-.38.2-.14.07-.31.14-.5.2-.19.06-.42.12-.67.16-.26.05-.55.07-.88.07M170.38,65.95c0-.19-.02-.36-.07-.52-.05-.16-.11-.3-.19-.42-.08-.12-.2-.22-.34-.29-.14-.07-.32-.11-.52-.11-.38,0-.68.12-.89.35-.21.23-.35.56-.42.99h2.43Z"/>
    <path class="cls-3" d="M99.09,75.57h1.82l3.49,8.9h-2.06l-.6-1.67h-3.56l-.59,1.67h-1.9l3.4-8.9ZM101.2,81.3l-.76-2.13c-.14-.38-.25-.71-.31-.98-.07-.27-.12-.46-.17-.56h-.03c-.04.11-.09.3-.17.58-.08.28-.18.6-.3.96l-.76,2.13h2.5Z"/>
    <path class="cls-3" d="M108.17,84.64c-.53,0-1-.08-1.41-.25-.42-.17-.77-.4-1.06-.7-.29-.3-.51-.66-.67-1.08-.16-.41-.23-.88-.23-1.38,0-.54.09-1.03.26-1.46.17-.43.41-.79.71-1.08.3-.29.66-.51,1.08-.66.42-.15.87-.23,1.36-.23.53,0,.96.06,1.28.19.32.12.56.24.71.33l-.57,1.22c-.15-.1-.33-.19-.55-.27-.21-.08-.49-.12-.82-.12-.53,0-.92.18-1.19.55s-.4.86-.4,1.46c0,.3.03.58.1.83.07.25.17.48.3.66.13.19.3.33.51.43.2.1.45.15.72.15.37,0,.68-.05.91-.15.23-.1.4-.19.49-.25l.55,1.19c-.08.05-.18.11-.29.18-.12.07-.26.13-.43.19-.17.06-.37.11-.59.15-.23.05-.49.07-.78.07"/>
    <path class="cls-3" d="M111.36,74.85h1.78v3.9c.08-.09.18-.19.31-.3.12-.11.27-.21.43-.31.17-.09.35-.17.57-.24.21-.07.45-.1.72-.1.36,0,.66.05.91.16.25.11.45.25.6.44.15.19.26.41.33.67.07.26.11.54.11.84v4.56h-1.78v-4.2c0-.33-.07-.58-.19-.74-.13-.16-.35-.25-.66-.25-.18,0-.34.03-.49.1-.15.07-.28.15-.39.24-.12.09-.21.19-.29.27-.08.09-.14.16-.17.2v4.37h-1.78v-9.62Z"/>
    <path class="cls-3" d="M119.82,77.13c-.31,0-.57-.11-.77-.32-.21-.21-.31-.46-.31-.75s.1-.53.31-.74c.2-.2.46-.31.77-.31s.57.1.78.31c.21.21.31.45.31.74s-.11.54-.31.75c-.21.21-.47.32-.78.32M118.93,77.97h1.79v6.51h-1.79v-6.51Z"/>
    <path class="cls-3" d="M125.51,84.64c-.54,0-1.03-.08-1.45-.25-.42-.17-.78-.4-1.07-.7-.29-.3-.51-.67-.66-1.09-.15-.42-.23-.89-.23-1.41s.08-.98.25-1.4c.17-.41.39-.77.68-1.06.29-.29.63-.52,1.02-.68.39-.16.82-.24,1.27-.24.93,0,1.63.28,2.11.84.48.56.72,1.35.72,2.37,0,.1,0,.2,0,.3,0,.1-.01.21-.02.31h-4.12c.04.48.2.88.45,1.2.26.32.66.48,1.2.48.45,0,.8-.06,1.06-.17.26-.11.47-.21.63-.29l.58,1.15c-.11.06-.23.13-.38.2-.14.07-.31.14-.5.2-.19.06-.42.12-.67.16-.26.05-.55.07-.88.07M126.42,80.43c0-.19-.02-.36-.07-.52-.05-.16-.11-.3-.19-.42-.08-.12-.2-.22-.34-.29-.14-.07-.32-.11-.52-.11-.38,0-.68.12-.89.35-.21.23-.35.56-.42.99h2.43Z"/>
    <polygon class="cls-3" points="128.63 77.97 130.56 77.97 131.91 82.27 131.94 82.27 133.33 77.97 135.13 77.97 132.73 84.48 131.05 84.48 128.63 77.97"/>
    <path class="cls-3" d="M138.91,84.64c-.54,0-1.03-.08-1.45-.25-.42-.17-.78-.4-1.07-.7-.29-.3-.51-.67-.66-1.09-.15-.42-.23-.89-.23-1.41s.08-.98.25-1.4c.17-.41.39-.77.68-1.06.29-.29.63-.52,1.02-.68.39-.16.82-.24,1.27-.24.93,0,1.63.28,2.11.84.48.56.72,1.35.72,2.37,0,.1,0,.2,0,.3,0,.1-.01.21-.02.31h-4.12c.04.48.2.88.45,1.2.26.32.66.48,1.2.48.45,0,.8-.06,1.06-.17.26-.11.47-.21.63-.29l.58,1.15c-.11.06-.23.13-.38.2-.14.07-.31.14-.5.2-.19.06-.42.12-.67.16-.26.05-.55.07-.88.07M139.82,80.43c0-.19-.02-.36-.07-.52-.05-.16-.11-.3-.19-.42-.08-.12-.2-.22-.34-.29-.14-.07-.32-.11-.52-.11-.38,0-.68.12-.89.35-.21.23-.35.56-.42.99h2.43Z"/>
    <path class="cls-3" d="M142.91,77.97h1.74v.8c.08-.09.18-.19.29-.31.12-.11.25-.22.41-.31.16-.09.34-.17.55-.24.2-.07.44-.1.69-.1.46,0,.83.09,1.09.28.26.19.46.44.58.75.28-.31.57-.56.89-.75.32-.19.72-.28,1.19-.28.35,0,.64.05.88.16.24.11.43.25.57.44.15.19.25.41.31.67.06.26.09.54.09.84v4.56h-1.78v-4.2c0-.32-.06-.57-.17-.74-.11-.17-.31-.25-.61-.25-.13,0-.26.02-.38.07-.12.05-.23.11-.33.18-.1.07-.2.15-.28.23-.09.09-.16.17-.22.25v4.45h-1.78v-4.2c0-.33-.06-.58-.18-.74-.12-.17-.31-.25-.58-.25-.16,0-.31.03-.45.1-.14.07-.26.14-.36.23-.1.09-.19.18-.25.27-.07.09-.12.16-.15.2v4.38h-1.78v-6.51Z"/>
    <path class="cls-3" d="M156.86,84.64c-.54,0-1.03-.08-1.45-.25-.42-.17-.78-.4-1.07-.7-.29-.3-.51-.67-.66-1.09-.15-.42-.23-.89-.23-1.41s.08-.98.25-1.4c.17-.41.39-.77.68-1.06.29-.29.63-.52,1.02-.68.39-.16.82-.24,1.27-.24.93,0,1.63.28,2.11.84.48.56.72,1.35.72,2.37,0,.1,0,.2,0,.3,0,.1-.01.21-.02.31h-4.12c.04.48.2.88.45,1.2.26.32.66.48,1.2.48.45,0,.8-.06,1.06-.17.26-.11.47-.21.63-.29l.58,1.15c-.11.06-.23.13-.38.2-.14.07-.31.14-.5.2-.19.06-.42.12-.67.16-.26.05-.55.07-.88.07M157.76,80.43c0-.19-.02-.36-.07-.52-.05-.16-.11-.3-.19-.42-.08-.12-.2-.22-.34-.29-.14-.07-.32-.11-.52-.11-.38,0-.68.12-.89.35-.21.23-.35.56-.42.99h2.43Z"/>
    <path class="cls-3" d="M160.85,77.97h1.74v.82c.23-.28.52-.51.86-.7.34-.19.74-.28,1.22-.28.36,0,.66.05.9.16.24.11.45.25.6.44.16.19.27.41.34.67.07.26.11.54.11.84v4.56h-1.78v-4.2c0-.33-.07-.58-.19-.74s-.35-.25-.67-.25c-.14,0-.28.02-.42.07-.13.05-.26.11-.37.19-.11.08-.22.17-.31.27-.1.1-.18.19-.24.28v4.37h-1.78v-6.51Z"/>
    <path class="cls-3" d="M170.78,84.64c-.77,0-1.3-.18-1.6-.55-.3-.37-.46-.86-.46-1.48v-3.32h-1.04v-1.32h1.04v-1.89h1.77v1.89h1.52v1.32h-1.52v2.97c0,.32.05.55.14.7.09.15.27.22.52.22.2,0,.37-.03.52-.09.15-.06.26-.11.33-.15l.41,1.32c-.13.07-.34.15-.61.24-.27.09-.61.13-1.02.13"/>
    <path class="cls-3" d="M174.5,51.65c-.29,0-.56-.05-.82-.17-.26-.11-.48-.26-.67-.45-.19-.19-.34-.42-.45-.67-.11-.26-.17-.53-.17-.82s.06-.57.17-.82c.11-.26.26-.48.45-.67s.41-.34.67-.45c.26-.11.53-.17.82-.17s.57.06.82.17c.26.11.48.26.67.45.19.19.34.41.45.67.11.26.17.53.17.82s-.05.57-.17.82-.26.48-.45.67c-.19.19-.41.34-.67.45-.26.11-.53.17-.82.17M174.5,51.35c.26,0,.49-.04.71-.14.22-.09.41-.22.57-.38.16-.16.29-.35.38-.57.09-.22.14-.47.14-.73s-.05-.51-.14-.73c-.09-.22-.22-.41-.38-.58-.16-.16-.35-.29-.57-.38-.22-.09-.46-.14-.71-.14s-.49.05-.71.14c-.22.09-.41.22-.57.38-.16.16-.28.36-.37.58s-.14.46-.14.73.04.51.14.73.21.41.37.57c.16.16.35.29.57.38.22.09.46.14.71.14M173.73,48.23h.83c.13,0,.24.02.34.06.1.04.18.09.25.16.06.07.11.14.15.23.03.09.05.18.05.27,0,.19-.06.34-.18.45-.12.11-.29.18-.5.21.06.04.11.09.15.14.04.05.09.12.15.19l.6.85h-.45l-.62-.9c-.07-.1-.12-.16-.18-.2-.05-.04-.13-.05-.23-.05v1.15h-.37v-2.56ZM174.36,49.35c.07,0,.14,0,.21-.01.07,0,.14-.02.19-.05.06-.03.1-.07.14-.12.03-.05.05-.13.05-.22,0-.12-.03-.22-.1-.29-.07-.07-.19-.11-.37-.11h-.38v.8h.26Z"/>
    <path class="cls-2" d="M27.04,53.54h2.39v2.4h-2.39v-2.4ZM42.33,19.36h-2.87v2.89h2.87v-2.89ZM39.18,23.08h-2.87v2.89h2.87v-2.89ZM41.92,29.34h-2.87v2.89h2.87v-2.89ZM25.35,8.72h2.87v2.89h-2.87v-2.89ZM26.57,16.03h2.87v2.89h-2.87v-2.89ZM23.5,48.91h2.87v2.88h-2.87v-2.88ZM27.4,44.83h3.48v3.5h-3.48v-3.5ZM38.95,47.45h-2.92v2.94h2.92v-2.94ZM43.55,37.27v-19.23l-8.96-5.41v20.38h4.23v4.26h4.74ZM42.6,41.93h-3.61v3.63h3.61v-3.63ZM38.8,37.35h-4.07v4.09h4.07v-4.09ZM25.62,2.06l-2.09,1.26-4.79,2.89v23.31h4.74v-4.26h4.28v4.26h4.74V6.21l-4.79-2.89-2.09-1.26M23.26,38.6h3.69v3.71h-3.69v-3.71ZM23.44,29.8h4.4v4.43h-4.4v-4.43Z"/>
  </g>
  <g class="cls-15">
    <rect class="cls-13" x="14.57" y="1.68" width="15.21" height="28.22" transform="translate(-3.85 7.82) rotate(-18.43)"/>
  </g>
  <g class="cls-18">
    <rect class="cls-12" x="23.11" y="48.67" width="2.91" height="3.4" transform="translate(-14.67 10.35) rotate(-18.43)"/>
  </g>
  <g class="cls-16">
    <rect class="cls-11" x="11.56" y="47.05" width="4.03" height="4.05" transform="translate(-14.82 6.81) rotate(-18.43)"/>
  </g>
  <g class="cls-17">
    <rect class="cls-10" x="3.73" y="11.86" width="16.3" height="26.21" transform="translate(-7.29 5.04) rotate(-18.43)"/>
  </g>
  <g class="cls-23">
    <rect class="cls-7" x="22.75" y="38.34" width="3.4" height="4.27" transform="translate(-11.55 9.81) rotate(-18.44)"/>
  </g>
  <g class="cls-20">
    <rect class="cls-8" x="18.45" y="33.51" width="4.92" height="4.94" transform="translate(-10.3 8.46) rotate(-18.44)"/>
  </g>
  <g class="cls-19">
    <rect class="cls-6" x="22.81" y="29.59" width="3.45" height="4.88" transform="translate(-8.87 9.4) rotate(-18.43)"/>
  </g>
  <g class="cls-22">
    <rect class="cls-5" x="11.55" y="36.79" width="5.57" height="5.59" transform="translate(-11.78 6.57) rotate(-18.43)"/>
  </g>
  <g class="cls-21">
    <rect class="cls-9" x="7.74" y="41.77" width="4.66" height="4.68" transform="translate(-13.43 5.45) rotate(-18.43)"/>
  </g>
</svg>