<?xml version="1.0" encoding="UTF-8"?>
<svg id="Layer_1" data-name="Layer 1" xmlns="http://www.w3.org/2000/svg" xmlns:xlink="http://www.w3.org/1999/xlink" viewBox="0 0 306.94 145.43">
  <defs>
    <style>
      .cls-1 {
        fill: none;
      }

      .cls-2, .cls-3 {
        fill: #010101;
      }

      .cls-4 {
        fill: url(#linear-gradient-8);
      }

      .cls-5 {
        fill: url(#linear-gradient-7);
      }

      .cls-6 {
        fill: url(#linear-gradient-5);
      }

      .cls-7 {
        fill: url(#linear-gradient-6);
      }

      .cls-8 {
        fill: url(#linear-gradient-9);
      }

      .cls-9 {
        fill: url(#linear-gradient-4);
      }

      .cls-10 {
        fill: url(#linear-gradient-3);
      }

      .cls-11 {
        fill: url(#linear-gradient-2);
      }

      .cls-12 {
        fill: #77797c;
      }

      .cls-13 {
        fill: #d2d3d4;
      }

      .cls-14 {
        fill: url(#linear-gradient);
      }

      .cls-3 {
        fill-rule: evenodd;
      }

      .cls-15 {
        clip-path: url(#clippath-1);
      }

      .cls-16 {
        clip-path: url(#clippath-3);
      }

      .cls-17 {
        clip-path: url(#clippath-4);
      }

      .cls-18 {
        clip-path: url(#clippath-2);
      }

      .cls-19 {
        clip-path: url(#clippath-7);
      }

      .cls-20 {
        clip-path: url(#clippath-6);
      }

      .cls-21 {
        clip-path: url(#clippath-9);
      }

      .cls-22 {
        clip-path: url(#clippath-8);
      }

      .cls-23 {
        clip-path: url(#clippath-5);
      }

      .cls-24 {
        clip-path: url(#clippath);
      }
    </style>
    <clipPath id="clippath">
      <rect class="cls-1" x="20.83" y="5.81" width="286.11" height="98.7"/>
    </clipPath>
    <clipPath id="clippath-1">
      <polygon class="cls-1" points="48.11 7.94 40.01 12.82 40.01 52.23 48.02 52.23 48.02 45.03 51.64 45.03 51.64 5.81 48.11 7.94"/>
    </clipPath>
    <linearGradient id="linear-gradient" x1="-47.69" y1="658.55" x2="-44.61" y2="658.55" gradientTransform="translate(-2125.27 -30275.08) rotate(-180) scale(46.02 -46.02)" gradientUnits="userSpaceOnUse">
      <stop offset="0" stop-color="#fff"/>
      <stop offset=".24" stop-color="#bababa"/>
      <stop offset=".72" stop-color="#363636"/>
      <stop offset=".93" stop-color="#010101"/>
      <stop offset="1" stop-color="#010101"/>
    </linearGradient>
    <clipPath id="clippath-2">
      <polygon class="cls-1" points="48.08 85.05 48.08 89.93 48.08 89.93 51.64 89.93 51.64 89.93 51.64 85.05 51.64 85.05 48.08 85.05"/>
    </clipPath>
    <linearGradient id="linear-gradient-2" x1="-47.69" y1="659.2" x2="-44.61" y2="659.2" gradientTransform="translate(-2082.78 -30246.89) rotate(-180) scale(46.02 -46.02)" xlink:href="#linear-gradient"/>
    <clipPath id="clippath-3">
      <polygon class="cls-1" points="28.6 82.59 28.6 88 33.98 88 33.98 82.59 33.97 82.59 28.6 82.59"/>
    </clipPath>
    <linearGradient id="linear-gradient-3" x1="-47.69" y1="658.99" x2="-44.61" y2="658.99" gradientTransform="translate(-2089.86 -30239.17) rotate(180) scale(46.02 -46.02)" xlink:href="#linear-gradient"/>
    <clipPath id="clippath-4">
      <polygon class="cls-1" points="20.83 32.84 20.83 65.36 28.84 65.36 28.84 58.17 35.99 58.17 35.99 23.71 20.83 32.84"/>
    </clipPath>
    <linearGradient id="linear-gradient-4" x1="-47.69" y1="658.53" x2="-44.61" y2="658.53" gradientTransform="translate(-2119.41 -30258.83) rotate(-180) scale(46.02 -46.02)" xlink:href="#linear-gradient"/>
    <clipPath id="clippath-5">
      <polygon class="cls-1" points="47.68 67.62 47.68 67.62 47.68 73.9 51.64 73.9 51.64 73.9 51.64 67.62 51.64 67.62 47.68 67.62"/>
    </clipPath>
    <linearGradient id="linear-gradient-5" x1="-47.69" y1="659.03" x2="-44.61" y2="659.03" gradientTransform="translate(-2094.63 -30255.53) rotate(-180) scale(46.02 -46.02)" xlink:href="#linear-gradient"/>
    <clipPath id="clippath-6">
      <polygon class="cls-1" points="40.39 59.85 40.39 59.85 40.39 66.46 46.96 66.46 46.96 59.85 40.39 59.85"/>
    </clipPath>
    <linearGradient id="linear-gradient-6" x1="-47.69" y1="658.89" x2="-44.61" y2="658.89" gradientTransform="translate(-2101.87 -30256.63) rotate(180) scale(46.02 -46.02)" xlink:href="#linear-gradient"/>
    <clipPath id="clippath-7">
      <polygon class="cls-1" points="47.98 52.74 47.98 52.74 47.98 60.22 51.64 60.22 51.64 60.22 51.64 52.74 51.64 52.74 47.98 52.74"/>
    </clipPath>
    <linearGradient id="linear-gradient-7" x1="-47.69" y1="658.88" x2="-44.61" y2="658.88" gradientTransform="translate(-2104.78 -30263.04) rotate(180) scale(46.02 -46.02)" xlink:href="#linear-gradient"/>
    <clipPath id="clippath-8">
      <rect class="cls-1" x="28.86" y="65.5" width="7.44" height="7.48"/>
    </clipPath>
    <linearGradient id="linear-gradient-8" x1="-47.69" y1="658.84" x2="-44.61" y2="658.84" gradientTransform="translate(-2100.84 -30248.16) rotate(180) scale(46.02 -46.02)" xlink:href="#linear-gradient"/>
    <clipPath id="clippath-9">
      <rect class="cls-1" x="22.25" y="73.76" width="6.23" height="6.27"/>
    </clipPath>
    <linearGradient id="linear-gradient-9" x1="-47.69" y1="658.84" x2="-44.61" y2="658.84" gradientTransform="translate(-2097.46 -30240.73) rotate(180) scale(46.02 -46.02)" xlink:href="#linear-gradient"/>
  </defs>
  <g class="cls-24">
    <path class="cls-2" d="M105.21,34.36h11.34l11.09,34.03c.66,1.99,1.23,3.88,1.7,5.67.47,1.8.84,3.08,1.12,3.85h.17c.22-.77.59-2.06,1.12-3.85.52-1.79,1.12-3.68,1.78-5.67l11.43-34.03h11.26l7.62,55.15h-11.92l-3.56-28.48c-.27-2.04-.48-3.75-.62-5.13-.14-1.38-.23-2.35-.29-2.9h-.17c-.11.61-.36,1.61-.75,3.02s-.88,3.02-1.49,4.84l-9.36,28.65h-11.51l-9.36-28.57c-.55-1.77-1.02-3.38-1.41-4.84-.39-1.46-.66-2.5-.83-3.11h-.17c-.05.61-.14,1.66-.25,3.15-.11,1.49-.28,3.15-.5,4.97l-3.56,28.4h-10.52l7.62-55.15Z"/>
    <polygon class="cls-2" points="169.13 34.36 200.93 34.36 200.93 43.97 180.64 43.97 180.64 56.39 198.53 56.39 198.53 65.5 180.64 65.5 180.64 79.91 201.51 79.91 201.51 89.51 169.13 89.51 169.13 34.36"/>
    <path class="cls-2" d="M222.87,90.5c-2.27,0-4.31-.19-6.13-.58-1.82-.39-3.44-.86-4.84-1.41s-2.62-1.14-3.64-1.78c-1.02-.63-1.84-1.2-2.44-1.7l4.97-8.11c.33.22.83.56,1.49,1.03.66.47,1.49.93,2.48,1.37.99.44,2.15.84,3.48,1.2,1.33.36,2.79.54,4.39.54,2.82,0,4.98-.62,6.5-1.86,1.52-1.24,2.28-2.74,2.28-4.51,0-1.21-.35-2.25-1.03-3.1-.69-.86-1.6-1.61-2.73-2.28-1.13-.66-2.44-1.31-3.93-1.95-1.49-.63-3.04-1.37-4.64-2.19-1.71-.83-3.29-1.74-4.72-2.73-1.44-.99-2.68-2.12-3.73-3.39-1.05-1.27-1.88-2.75-2.48-4.43-.61-1.69-.91-3.66-.91-5.92s.47-4.5,1.41-6.37c.94-1.88,2.21-3.48,3.81-4.8,1.6-1.33,3.48-2.35,5.63-3.06,2.15-.72,4.47-1.08,6.96-1.08,2.26,0,4.26.17,6,.5,1.74.33,3.27.73,4.6,1.2,1.33.47,2.43.96,3.31,1.49.88.53,1.63,1.01,2.24,1.45l-4.72,8.2c-.5-.33-1.1-.69-1.82-1.08-.72-.39-1.54-.75-2.48-1.08-.94-.33-1.96-.62-3.06-.87-1.1-.25-2.23-.37-3.39-.37-2.27,0-4.06.48-5.38,1.45-1.33.97-1.99,2.39-1.99,4.27,0,1.1.26,2.03.79,2.77.52.75,1.24,1.42,2.15,2.03.91.61,1.99,1.19,3.23,1.74,1.24.55,2.58,1.16,4.02,1.82,1.82.83,3.59,1.71,5.3,2.65,1.71.94,3.21,2.07,4.51,3.4,1.3,1.33,2.35,2.88,3.15,4.68.8,1.79,1.2,3.96,1.2,6.5s-.46,4.75-1.37,6.79c-.91,2.04-2.22,3.77-3.93,5.17-1.71,1.41-3.8,2.5-6.25,3.27-2.46.77-5.2,1.16-8.24,1.16"/>
    <path class="cls-2" d="M264.44,34.36h11.26l21.61,55.15h-12.75l-3.73-10.35h-22.03l-3.65,10.35h-11.76l21.03-55.15ZM277.52,69.8l-4.72-13.17c-.88-2.37-1.53-4.4-1.95-6.09-.41-1.68-.76-2.83-1.04-3.44h-.16c-.22.66-.57,1.85-1.04,3.56-.47,1.71-1.09,3.7-1.86,5.96l-4.72,13.17h15.48Z"/>
    <path class="cls-12" d="M29.42,105.62h3.1l3.03,9.29c.18.54.34,1.06.47,1.55.13.49.23.84.31,1.05h.05c.06-.21.16-.56.3-1.05.14-.49.31-1.01.49-1.55l3.12-9.29h3.08l2.08,15.05h-3.25l-.97-7.78c-.08-.56-.13-1.03-.17-1.4-.04-.38-.06-.64-.08-.79h-.04c-.03.17-.1.44-.2.83-.11.38-.24.83-.41,1.32l-2.55,7.82h-3.14l-2.55-7.8c-.15-.48-.28-.92-.39-1.32-.1-.4-.18-.68-.22-.85h-.05c-.02.17-.04.45-.07.86-.03.41-.07.86-.14,1.36l-.97,7.75h-2.87l2.08-15.05Z"/>
    <path class="cls-12" d="M50.42,120.94c-.47,0-.91-.07-1.31-.2-.41-.14-.76-.33-1.05-.6-.29-.26-.53-.59-.7-.97-.17-.39-.26-.83-.26-1.32,0-.72.17-1.33.51-1.83.34-.5.78-.9,1.33-1.21.55-.31,1.18-.53,1.89-.67.71-.14,1.42-.2,2.14-.2h.39v-.63c0-.53-.13-.92-.39-1.16-.27-.25-.73-.37-1.39-.37-.6,0-1.14.11-1.61.33-.47.22-.87.46-1.2.71l-1.31-1.83c.44-.41,1.03-.77,1.78-1.1.75-.32,1.64-.48,2.68-.48,1.51,0,2.62.31,3.34.94s1.08,1.67,1.08,3.13v3.95c0,.76.03,1.4.1,1.93.07.54.14.98.22,1.32h-2.96c-.05-.14-.08-.32-.11-.56-.03-.24-.06-.44-.07-.61-.3.36-.71.69-1.23,1-.52.3-1.14.45-1.86.45M51.32,118.75c.47,0,.86-.09,1.19-.28.32-.19.61-.42.85-.69v-1.99h-.39c-.89,0-1.61.14-2.16.42-.55.28-.83.74-.83,1.39,0,.41.14.7.41.88.27.18.58.27.93.27"/>
    <path class="cls-12" d="M63.37,120.94c-1.3,0-2.2-.31-2.71-.93-.51-.62-.77-1.45-.77-2.51v-5.61h-1.77v-2.24h1.77v-3.19h2.98v3.19h2.58v2.24h-2.58v5.02c0,.54.08.94.24,1.19.16.25.45.37.87.37.33,0,.63-.05.88-.15.26-.1.44-.18.56-.26l.7,2.24c-.23.12-.57.26-1.03.41-.46.15-1.04.22-1.73.22"/>
    <path class="cls-12" d="M67.87,104.4h3.01v6.6c.14-.15.31-.32.52-.51.21-.19.46-.36.74-.52.28-.16.6-.3.96-.41.36-.11.77-.17,1.22-.17.6,0,1.12.09,1.54.27.42.18.76.43,1.02.75.26.32.44.69.56,1.13.12.43.18.91.18,1.42v7.7h-3v-7.09c0-.56-.11-.98-.33-1.25-.22-.28-.59-.42-1.12-.42-.3,0-.58.06-.83.17-.25.11-.47.25-.67.41s-.36.31-.5.46c-.14.15-.23.27-.29.34v7.39h-3.01v-16.27Z"/>
    <rect class="cls-13" x="84.11" y="113.32" width="3.7" height="3.7"/>
    <polygon class="cls-12" points="94.79 105.62 103.47 105.62 103.47 108.24 97.93 108.24 97.93 111.63 102.81 111.63 102.81 114.12 97.93 114.12 97.93 118.05 103.63 118.05 103.63 120.67 94.79 120.67 94.79 105.62"/>
    <path class="cls-12" d="M106.18,109.66h2.94v1.38c.39-.47.88-.86,1.45-1.17.57-.32,1.26-.47,2.06-.47.6,0,1.11.09,1.53.27.42.18.76.43,1.02.75.27.32.46.69.58,1.13s.18.91.18,1.42v7.71h-3v-7.1c0-.56-.11-.98-.33-1.25-.22-.28-.6-.42-1.14-.42-.24,0-.47.04-.7.12-.22.08-.43.19-.62.33-.19.14-.37.29-.53.45-.17.16-.3.32-.41.47v7.39h-3.01v-11.01Z"/>
    <path class="cls-12" d="M122.79,126.07c-1.52,0-2.71-.24-3.56-.72-.85-.48-1.28-1.22-1.28-2.22,0-.62.17-1.15.52-1.58.35-.43.79-.8,1.33-1.11-.3-.18-.54-.41-.71-.68-.18-.27-.26-.6-.26-1,0-.51.12-.93.36-1.26.24-.33.53-.6.86-.81-.63-.35-1.12-.8-1.45-1.37-.33-.56-.5-1.21-.5-1.93,0-.59.11-1.13.34-1.63.22-.5.55-.92.96-1.27.42-.35.92-.62,1.53-.81.6-.19,1.29-.29,2.06-.29s1.39.09,1.97.27h4v1.97h-1.52c.3.53.45,1.12.45,1.76,0,1.17-.4,2.13-1.21,2.87-.81.74-1.98,1.11-3.54,1.11-.22,0-.45,0-.67-.02-.22-.01-.43-.04-.64-.07-.27.17-.41.38-.41.63,0,.3.17.5.51.59.34.09.91.16,1.7.21.57.03,1.16.07,1.78.12s1.17.18,1.67.39c.5.21.92.54,1.24.98s.49,1.07.49,1.89c0,.59-.14,1.12-.43,1.61-.29.48-.7.9-1.23,1.25-.54.35-1.17.63-1.91.83-.74.2-1.56.29-2.46.29M122.97,124.06c.92,0,1.63-.16,2.13-.47.5-.31.75-.7.75-1.16,0-.29-.06-.51-.19-.67-.13-.16-.31-.27-.53-.35-.22-.07-.5-.12-.83-.14-.32-.02-.69-.05-1.09-.08-.26-.03-.51-.05-.77-.07-.26-.02-.51-.04-.75-.09-.57.41-.86.92-.86,1.53,0,.44.16.8.5,1.08.33.28.88.42,1.65.42M123.02,115.43c.63,0,1.12-.18,1.47-.54.35-.36.52-.86.52-1.49s-.17-1.15-.52-1.5c-.35-.35-.84-.53-1.47-.53s-1.12.18-1.47.53c-.35.35-.52.86-.52,1.5s.18,1.13.52,1.49c.35.36.84.54,1.47.54"/>
    <path class="cls-12" d="M132.6,108.24c-.53,0-.96-.18-1.31-.54-.35-.36-.52-.79-.52-1.27s.17-.9.52-1.24.79-.52,1.31-.52.97.17,1.32.52c.35.35.53.76.53,1.24s-.18.9-.53,1.27c-.35.36-.8.54-1.32.54M131.09,109.66h3.03v11.01h-3.03v-11.01Z"/>
    <path class="cls-12" d="M137.24,109.66h2.94v1.38c.39-.47.88-.86,1.45-1.17.57-.32,1.26-.47,2.06-.47.6,0,1.11.09,1.53.27.42.18.76.43,1.02.75.27.32.46.69.58,1.13s.18.91.18,1.42v7.71h-3v-7.1c0-.56-.11-.98-.33-1.25-.22-.28-.6-.42-1.14-.42-.24,0-.47.04-.7.12-.22.08-.43.19-.62.33-.19.14-.37.29-.53.45-.17.16-.3.32-.41.47v7.39h-3.01v-11.01Z"/>
    <path class="cls-12" d="M154.8,120.94c-.92,0-1.74-.14-2.45-.42-.72-.28-1.32-.67-1.81-1.19-.49-.51-.86-1.13-1.12-1.84-.26-.71-.39-1.51-.39-2.39s.14-1.66.42-2.36c.28-.7.66-1.3,1.15-1.8.49-.5,1.07-.88,1.73-1.15s1.38-.41,2.14-.41c1.57,0,2.76.47,3.57,1.41.81.94,1.22,2.28,1.22,4.01,0,.17,0,.34,0,.51,0,.17-.02.35-.03.53h-6.96c.07.81.33,1.49.77,2.03.44.54,1.12.81,2.03.81.76,0,1.35-.09,1.8-.28.44-.19.8-.35,1.08-.48l.97,1.94c-.18.1-.39.22-.63.34-.24.12-.52.23-.85.34-.33.1-.71.19-1.14.27-.44.08-.93.11-1.49.11M156.33,113.82c0-.32-.04-.61-.11-.88-.07-.27-.18-.51-.33-.71-.14-.2-.34-.36-.58-.49-.24-.12-.54-.18-.88-.18-.65,0-1.15.19-1.5.59-.35.39-.59.95-.71,1.67h4.11Z"/>
    <path class="cls-12" d="M166.53,120.94c-.92,0-1.74-.14-2.45-.42-.71-.28-1.32-.67-1.81-1.19-.49-.51-.86-1.13-1.12-1.84-.26-.71-.39-1.51-.39-2.39s.14-1.66.42-2.36c.28-.7.66-1.3,1.15-1.8.49-.5,1.06-.88,1.73-1.15.66-.27,1.38-.41,2.14-.41,1.57,0,2.76.47,3.57,1.41.81.94,1.22,2.28,1.22,4.01,0,.17,0,.34,0,.51,0,.17-.02.35-.03.53h-6.96c.07.81.33,1.49.77,2.03.44.54,1.12.81,2.03.81.75,0,1.35-.09,1.8-.28.44-.19.8-.35,1.07-.48l.97,1.94c-.18.1-.39.22-.63.34-.24.12-.52.23-.85.34-.32.1-.7.19-1.14.27-.44.08-.93.11-1.49.11M168.07,113.82c0-.32-.04-.61-.11-.88-.08-.27-.18-.51-.33-.71-.14-.2-.34-.36-.58-.49-.24-.12-.54-.18-.88-.18-.65,0-1.15.19-1.5.59-.35.39-.59.95-.71,1.67h4.11Z"/>
    <path class="cls-12" d="M173.29,109.66h3.01v1.49c.12-.19.27-.4.44-.61.18-.21.37-.4.6-.58.22-.17.49-.31.78-.42.29-.1.61-.16.96-.16.41,0,.72.03.96.09.23.06.41.13.53.2l-.72,2.62c-.09-.06-.23-.12-.41-.17-.18-.05-.43-.08-.75-.08-.33,0-.63.06-.89.19-.26.13-.5.28-.7.46-.2.18-.37.37-.51.55-.14.19-.23.34-.29.46v6.94h-3.01v-11.01Z"/>
    <path class="cls-12" d="M183.8,108.24c-.53,0-.96-.18-1.31-.54-.35-.36-.52-.79-.52-1.27s.17-.9.52-1.24c.35-.35.78-.52,1.31-.52s.97.17,1.32.52c.35.35.53.76.53,1.24s-.18.9-.53,1.27c-.35.36-.8.54-1.32.54M182.28,109.66h3.03v11.01h-3.03v-11.01Z"/>
    <path class="cls-12" d="M188.43,109.66h2.94v1.38c.39-.47.88-.86,1.45-1.17.57-.32,1.26-.47,2.06-.47.6,0,1.11.09,1.53.27.42.18.76.43,1.02.75.27.32.46.69.58,1.13s.18.91.18,1.42v7.71h-3.01v-7.1c0-.56-.11-.98-.33-1.25-.22-.28-.6-.42-1.14-.42-.24,0-.47.04-.7.12-.22.08-.43.19-.62.33-.19.14-.37.29-.53.45-.17.16-.3.32-.41.47v7.39h-3.01v-11.01Z"/>
    <path class="cls-12" d="M205.04,126.07c-1.52,0-2.71-.24-3.56-.72-.85-.48-1.28-1.22-1.28-2.22,0-.62.17-1.15.52-1.58.35-.43.79-.8,1.33-1.11-.3-.18-.54-.41-.71-.68-.18-.27-.26-.6-.26-1,0-.51.12-.93.36-1.26.24-.33.53-.6.86-.81-.63-.35-1.12-.8-1.45-1.37-.33-.56-.5-1.21-.5-1.93,0-.59.11-1.13.34-1.63.22-.5.55-.92.96-1.27.42-.35.92-.62,1.53-.81.6-.19,1.29-.29,2.06-.29s1.39.09,1.97.27h4v1.97h-1.51c.3.53.45,1.12.45,1.76,0,1.17-.4,2.13-1.21,2.87-.81.74-1.98,1.11-3.54,1.11-.22,0-.45,0-.67-.02-.22-.01-.43-.04-.64-.07-.27.17-.41.38-.41.63,0,.3.17.5.51.59.34.09.91.16,1.7.21.57.03,1.16.07,1.78.12s1.17.18,1.67.39c.51.21.92.54,1.24.98s.49,1.07.49,1.89c0,.59-.14,1.12-.43,1.61-.28.48-.7.9-1.23,1.25-.54.35-1.17.63-1.91.83-.74.2-1.56.29-2.46.29M205.22,124.06c.92,0,1.63-.16,2.13-.47.5-.31.75-.7.75-1.16,0-.29-.06-.51-.19-.67-.13-.16-.31-.27-.53-.35-.22-.07-.5-.12-.83-.14-.32-.02-.69-.05-1.09-.08-.26-.03-.51-.05-.77-.07-.26-.02-.5-.04-.75-.09-.57.41-.86.92-.86,1.53,0,.44.16.8.5,1.08.33.28.88.42,1.65.42M205.27,115.43c.63,0,1.12-.18,1.47-.54.35-.36.52-.86.52-1.49s-.18-1.15-.52-1.5c-.35-.35-.84-.53-1.47-.53s-1.12.18-1.47.53c-.35.35-.52.86-.52,1.5s.18,1.13.52,1.49c.35.36.84.54,1.47.54"/>
    <rect class="cls-13" x="216.79" y="113.32" width="3.7" height="3.7"/>
    <path class="cls-12" d="M230.95,120.94c-.62,0-1.17-.05-1.67-.16-.5-.1-.94-.23-1.32-.39-.38-.15-.72-.31-1-.49-.28-.17-.5-.33-.67-.46l1.36-2.22c.09.06.23.15.41.28.18.13.41.25.68.37s.59.23.95.33c.36.1.76.15,1.2.15.77,0,1.36-.17,1.78-.51.41-.34.62-.75.62-1.23,0-.33-.09-.61-.28-.85-.19-.23-.44-.44-.75-.62-.31-.18-.67-.36-1.08-.53-.41-.17-.83-.37-1.26-.6-.47-.22-.9-.47-1.29-.75-.39-.27-.73-.58-1.02-.93-.29-.35-.51-.75-.68-1.21-.16-.46-.25-1-.25-1.62s.13-1.23.38-1.74c.26-.51.6-.95,1.04-1.31.43-.36.95-.64,1.53-.84.59-.2,1.22-.3,1.9-.3.62,0,1.16.05,1.64.14.47.09.89.2,1.25.33.36.13.66.27.91.41.24.14.44.27.61.39l-1.29,2.24c-.14-.09-.3-.19-.5-.29-.19-.1-.42-.2-.68-.29-.26-.09-.53-.17-.84-.24-.3-.07-.61-.1-.93-.1-.62,0-1.11.13-1.47.39-.36.27-.55.65-.55,1.16,0,.3.07.55.22.76.14.21.34.39.59.55.25.17.54.32.88.47s.7.32,1.1.5c.5.23.98.47,1.45.72.47.26.88.56,1.23.93.35.36.64.79.86,1.28.22.49.33,1.08.33,1.78s-.13,1.3-.37,1.85c-.25.56-.61,1.03-1.08,1.41-.47.38-1.04.68-1.7.89-.67.21-1.42.32-2.25.32"/>
    <path class="cls-12" d="M243.63,120.94c-.89,0-1.68-.14-2.39-.42-.7-.28-1.29-.67-1.78-1.19-.49-.51-.87-1.12-1.13-1.82-.26-.7-.39-1.48-.39-2.34,0-.92.15-1.74.44-2.47.29-.72.7-1.33,1.21-1.82s1.12-.86,1.83-1.12c.71-.26,1.48-.39,2.3-.39.91,0,1.63.11,2.17.32.54.21.94.4,1.2.56l-.97,2.06c-.26-.17-.57-.32-.93-.45-.36-.14-.82-.2-1.38-.2-.89,0-1.56.31-2.01.94-.45.63-.68,1.45-.68,2.48,0,.51.06.98.17,1.41.11.43.28.8.51,1.12.22.32.51.56.86.73.35.18.75.26,1.22.26.63,0,1.14-.09,1.53-.26.39-.17.67-.31.84-.42l.92,2.01c-.13.09-.3.19-.5.31-.19.11-.44.22-.72.32-.28.1-.62.18-1,.26-.39.08-.83.11-1.32.11"/>
    <path class="cls-12" d="M250.77,108.24c-.53,0-.96-.18-1.31-.54-.35-.36-.52-.79-.52-1.27s.17-.9.52-1.24c.35-.35.78-.52,1.31-.52s.97.17,1.32.52c.35.35.53.76.53,1.24s-.18.9-.53,1.27c-.35.36-.8.54-1.32.54M249.26,109.66h3.03v11.01h-3.03v-11.01Z"/>
    <path class="cls-12" d="M260.37,120.94c-.92,0-1.74-.14-2.45-.42-.71-.28-1.32-.67-1.81-1.19-.49-.51-.86-1.13-1.12-1.84-.26-.71-.39-1.51-.39-2.39s.14-1.66.42-2.36c.28-.7.66-1.3,1.15-1.8.49-.5,1.07-.88,1.73-1.15s1.38-.41,2.14-.41c1.57,0,2.76.47,3.57,1.41.81.94,1.22,2.28,1.22,4.01,0,.17,0,.34,0,.51,0,.17-.02.35-.03.53h-6.96c.07.81.33,1.49.77,2.03.44.54,1.12.81,2.03.81.76,0,1.35-.09,1.8-.28.44-.19.8-.35,1.08-.48l.97,1.94c-.18.1-.39.22-.63.34-.24.12-.52.23-.84.34-.33.1-.71.19-1.14.27-.44.08-.93.11-1.49.11M261.91,113.82c0-.32-.04-.61-.11-.88-.07-.27-.18-.51-.33-.71-.14-.2-.34-.36-.58-.49-.24-.12-.54-.18-.88-.18-.65,0-1.15.19-1.5.59-.35.39-.59.95-.71,1.67h4.11Z"/>
    <path class="cls-12" d="M267.13,109.66h2.94v1.38c.39-.47.88-.86,1.45-1.17.57-.32,1.26-.47,2.06-.47.6,0,1.11.09,1.53.27.42.18.76.43,1.02.75.27.32.46.69.58,1.13s.18.91.18,1.42v7.71h-3.01v-7.1c0-.56-.11-.98-.33-1.25-.22-.28-.6-.42-1.14-.42-.24,0-.47.04-.7.12-.22.08-.43.19-.62.33-.19.14-.37.29-.53.45-.17.16-.3.32-.41.47v7.39h-3.01v-11.01Z"/>
    <path class="cls-12" d="M284.63,120.94c-.89,0-1.68-.14-2.39-.42-.7-.28-1.29-.67-1.78-1.19-.49-.51-.87-1.12-1.13-1.82-.26-.7-.39-1.48-.39-2.34,0-.92.15-1.74.44-2.47.29-.72.7-1.33,1.21-1.82s1.12-.86,1.83-1.12c.71-.26,1.48-.39,2.3-.39.91,0,1.63.11,2.17.32.54.21.94.4,1.2.56l-.97,2.06c-.26-.17-.57-.32-.93-.45-.36-.14-.82-.2-1.38-.2-.89,0-1.56.31-2.01.94-.45.63-.68,1.45-.68,2.48,0,.51.06.98.17,1.41.11.43.28.8.51,1.12.22.32.51.56.86.73.35.18.75.26,1.22.26.63,0,1.14-.09,1.53-.26.39-.17.67-.31.84-.42l.92,2.01c-.13.09-.3.19-.5.31-.19.11-.44.22-.72.32-.28.1-.62.18-1,.26-.39.08-.83.11-1.32.11"/>
    <path class="cls-12" d="M294.87,120.94c-.92,0-1.74-.14-2.45-.42-.71-.28-1.32-.67-1.81-1.19-.49-.51-.86-1.13-1.12-1.84-.26-.71-.39-1.51-.39-2.39s.14-1.66.42-2.36c.28-.7.66-1.3,1.15-1.8.49-.5,1.07-.88,1.73-1.15s1.38-.41,2.14-.41c1.57,0,2.76.47,3.57,1.41.81.94,1.22,2.28,1.22,4.01,0,.17,0,.34,0,.51,0,.17-.02.35-.03.53h-6.96c.07.81.33,1.49.77,2.03.44.54,1.12.81,2.03.81.76,0,1.35-.09,1.8-.28.44-.19.8-.35,1.08-.48l.97,1.94c-.18.1-.39.22-.63.34-.24.12-.52.23-.84.34-.33.1-.71.19-1.14.27-.44.08-.93.11-1.49.11M296.4,113.82c0-.32-.04-.61-.11-.88-.07-.27-.18-.51-.33-.71-.14-.2-.34-.36-.58-.49-.24-.12-.54-.18-.88-.18-.65,0-1.15.19-1.5.59-.35.39-.59.95-.71,1.67h4.11Z"/>
    <path class="cls-2" d="M175.86,130.1h3.08l5.9,15.05h-3.48l-1.02-2.83h-6.01l-1,2.83h-3.21l5.74-15.05ZM179.44,139.78l-1.29-3.59c-.24-.65-.42-1.2-.53-1.66-.11-.46-.21-.77-.28-.94h-.05c-.06.18-.15.51-.28.97-.13.47-.3,1.01-.51,1.63l-1.29,3.59h4.23Z"/>
    <path class="cls-2" d="M191.21,145.43c-.89,0-1.68-.14-2.39-.42-.7-.28-1.29-.67-1.78-1.19-.49-.51-.87-1.12-1.13-1.82-.26-.7-.39-1.48-.39-2.34,0-.92.15-1.74.44-2.47.29-.72.7-1.33,1.21-1.82s1.12-.86,1.83-1.12c.71-.26,1.48-.39,2.31-.39.91,0,1.63.11,2.17.32.54.21.94.4,1.2.56l-.97,2.06c-.26-.17-.57-.32-.93-.45-.36-.14-.82-.2-1.38-.2-.89,0-1.56.31-2.01.94-.45.63-.68,1.45-.68,2.48,0,.51.06.98.17,1.41.11.43.28.8.51,1.12.22.32.51.56.86.73.35.17.75.26,1.22.26.63,0,1.14-.09,1.53-.26.39-.17.67-.31.84-.42l.92,2.01c-.13.09-.3.19-.5.31-.19.11-.44.22-.72.32-.28.1-.62.18-1,.26-.39.08-.83.11-1.32.11"/>
    <path class="cls-2" d="M196.61,128.88h3.01v6.6c.14-.15.31-.32.52-.51.21-.19.46-.36.74-.52.28-.16.6-.29.96-.41.36-.11.77-.17,1.22-.17.6,0,1.12.09,1.54.27.42.18.76.43,1.02.75.26.32.44.69.56,1.13.12.44.18.91.18,1.43v7.7h-3v-7.09c0-.56-.11-.98-.33-1.25-.22-.28-.59-.42-1.12-.42-.3,0-.58.06-.83.17-.25.11-.47.25-.67.41s-.36.31-.5.46c-.14.15-.23.27-.29.34v7.39h-3.01v-16.27Z"/>
    <path class="cls-2" d="M210.92,132.73c-.53,0-.96-.18-1.31-.54-.35-.36-.52-.78-.52-1.27s.18-.9.52-1.24c.35-.35.78-.52,1.31-.52s.97.17,1.32.52c.35.35.53.76.53,1.24s-.18.9-.53,1.27c-.35.36-.79.54-1.32.54M209.41,134.15h3.03v11.01h-3.03v-11.01Z"/>
    <path class="cls-2" d="M220.53,145.43c-.92,0-1.74-.14-2.45-.42-.71-.28-1.32-.67-1.81-1.19-.49-.51-.86-1.13-1.12-1.84-.26-.71-.39-1.51-.39-2.39s.14-1.66.42-2.36c.28-.7.66-1.3,1.15-1.8.49-.5,1.06-.88,1.73-1.15.66-.27,1.38-.41,2.14-.41,1.57,0,2.76.47,3.57,1.41.81.94,1.22,2.28,1.22,4.01,0,.17,0,.34,0,.51,0,.17-.02.35-.03.53h-6.96c.07.81.33,1.49.77,2.03.44.54,1.12.81,2.03.81.76,0,1.35-.09,1.8-.28.44-.19.8-.35,1.08-.48l.97,1.94c-.18.1-.39.22-.63.34-.24.12-.52.23-.85.34-.33.1-.71.19-1.14.27-.44.08-.93.11-1.49.11M222.06,138.31c0-.32-.04-.61-.11-.88-.07-.27-.18-.51-.33-.71-.14-.2-.34-.36-.58-.49-.24-.12-.54-.18-.88-.18-.65,0-1.15.2-1.5.59-.35.39-.59.95-.71,1.67h4.11Z"/>
    <polygon class="cls-2" points="225.82 134.15 229.07 134.15 231.35 141.42 231.4 141.42 233.75 134.15 236.8 134.15 232.73 145.16 229.91 145.16 225.82 134.15"/>
    <path class="cls-2" d="M243.2,145.43c-.92,0-1.74-.14-2.45-.42-.71-.28-1.32-.67-1.81-1.19-.49-.51-.86-1.13-1.12-1.84-.26-.71-.39-1.51-.39-2.39s.14-1.66.42-2.36c.28-.7.66-1.3,1.15-1.8.49-.5,1.07-.88,1.73-1.15s1.38-.41,2.14-.41c1.57,0,2.76.47,3.57,1.41.81.94,1.22,2.28,1.22,4.01,0,.17,0,.34,0,.51,0,.17-.02.35-.03.53h-6.96c.07.81.33,1.49.77,2.03.44.54,1.12.81,2.03.81.76,0,1.35-.09,1.8-.28.44-.19.8-.35,1.08-.48l.97,1.94c-.18.1-.39.22-.63.34-.24.12-.52.23-.84.34-.33.1-.71.19-1.14.27-.44.08-.93.11-1.49.11M244.73,138.31c0-.32-.04-.61-.11-.88-.07-.27-.18-.51-.33-.71-.14-.2-.34-.36-.58-.49-.24-.12-.54-.18-.88-.18-.65,0-1.15.2-1.5.59-.35.39-.59.95-.71,1.67h4.11Z"/>
    <path class="cls-2" d="M249.96,134.15h2.94v1.36c.14-.15.3-.32.5-.52s.43-.37.7-.53c.27-.16.58-.29.93-.41.35-.11.74-.17,1.17-.17.78,0,1.4.16,1.84.47s.77.74.98,1.27c.47-.53.97-.95,1.51-1.27.55-.32,1.21-.47,2.01-.47.59,0,1.08.09,1.48.27.4.18.72.43.97.75.25.32.43.69.53,1.13s.16.91.16,1.42v7.71h-3v-7.1c0-.54-.1-.96-.28-1.25-.19-.29-.53-.43-1.03-.43-.23,0-.44.04-.64.12-.2.08-.39.18-.57.31s-.33.25-.47.4c-.14.14-.27.28-.38.42v7.53h-3v-7.1c0-.56-.1-.98-.31-1.25-.2-.28-.53-.42-.98-.42-.27,0-.52.06-.76.17-.23.11-.44.24-.61.39-.17.15-.32.3-.43.45-.11.15-.2.27-.26.34v7.41h-3.01v-11.01Z"/>
    <path class="cls-2" d="M273.53,145.43c-.92,0-1.74-.14-2.45-.42-.71-.28-1.32-.67-1.81-1.19-.49-.51-.86-1.13-1.12-1.84-.26-.71-.39-1.51-.39-2.39s.14-1.66.42-2.36c.28-.7.66-1.3,1.15-1.8.49-.5,1.06-.88,1.73-1.15.66-.27,1.38-.41,2.14-.41,1.57,0,2.76.47,3.57,1.41.81.94,1.22,2.28,1.22,4.01,0,.17,0,.34,0,.51,0,.17-.02.35-.03.53h-6.96c.07.81.33,1.49.77,2.03.44.54,1.12.81,2.03.81.76,0,1.35-.09,1.8-.28.44-.19.8-.35,1.08-.48l.97,1.94c-.18.1-.39.22-.63.34-.24.12-.52.23-.85.34-.33.1-.71.19-1.14.27-.44.08-.93.11-1.49.11M275.07,138.31c0-.32-.04-.61-.11-.88-.07-.27-.18-.51-.33-.71-.14-.2-.34-.36-.58-.49-.24-.12-.54-.18-.88-.18-.65,0-1.15.2-1.5.59-.35.39-.59.95-.71,1.67h4.11Z"/>
    <path class="cls-2" d="M280.29,134.15h2.94v1.38c.39-.47.88-.86,1.45-1.17.57-.32,1.26-.47,2.06-.47.6,0,1.11.09,1.53.27.42.18.76.43,1.02.75.27.32.46.69.58,1.13s.18.91.18,1.42v7.71h-3v-7.1c0-.56-.11-.98-.33-1.25-.22-.28-.6-.42-1.14-.42-.24,0-.47.04-.7.12-.22.08-.43.19-.62.33-.19.14-.37.29-.53.45s-.3.33-.41.47v7.39h-3.01v-11.01Z"/>
    <path class="cls-2" d="M297.08,145.43c-1.3,0-2.2-.31-2.71-.93-.51-.62-.77-1.45-.77-2.51v-5.6h-1.77v-2.24h1.77v-3.19h2.98v3.19h2.58v2.24h-2.58v5.02c0,.54.08.94.24,1.19.16.25.45.37.87.37.33,0,.63-.05.88-.15.26-.1.44-.18.56-.26l.7,2.24c-.23.12-.57.26-1.03.41-.46.15-1.04.22-1.73.22"/>
    <path class="cls-2" d="M303.36,89.64c-.49,0-.95-.1-1.38-.28-.43-.19-.81-.44-1.13-.77-.32-.32-.58-.7-.77-1.13-.19-.43-.28-.9-.28-1.39s.1-.96.28-1.39c.19-.43.44-.81.77-1.13.32-.32.7-.58,1.13-.77.43-.19.89-.28,1.38-.28s.96.09,1.39.28c.43.19.81.44,1.13.77.32.32.58.7.77,1.13.19.43.28.9.28,1.39s-.1.96-.28,1.39c-.19.43-.44.81-.77,1.13-.32.32-.7.58-1.13.77-.43.19-.9.28-1.39.28M303.36,89.15c.44,0,.84-.08,1.21-.23.37-.15.69-.37.96-.64.27-.27.48-.6.64-.97.15-.38.23-.79.23-1.24s-.08-.86-.23-1.23c-.15-.38-.37-.7-.64-.97-.27-.27-.59-.49-.96-.64-.37-.15-.77-.23-1.21-.23s-.84.08-1.2.23c-.37.15-.69.37-.96.64-.27.27-.48.6-.63.97-.15.37-.23.78-.23,1.23s.07.86.23,1.24c.15.38.36.7.63.97.27.27.59.48.96.64.37.15.77.23,1.2.23M302.07,83.87h1.41c.22,0,.41.03.58.1.17.06.31.15.42.27.11.11.19.24.25.39.06.14.09.3.09.46,0,.32-.1.57-.3.76-.2.19-.48.31-.85.36.1.07.18.15.26.24.08.09.16.2.25.33l1.01,1.43h-.76l-1.04-1.53c-.11-.16-.21-.27-.3-.33-.09-.06-.22-.09-.38-.09v1.94h-.62v-4.33ZM303.13,85.77c.12,0,.24,0,.36-.02.12-.01.23-.04.33-.09.1-.05.17-.11.23-.21.06-.09.09-.22.09-.37,0-.2-.06-.37-.18-.49-.12-.13-.33-.19-.63-.19h-.64v1.36h.44Z"/>
    <path class="cls-3" d="M54.05,92.84h4.04v4.06h-4.04v-4.06ZM79.9,35.05h-4.86v4.89h4.86v-4.89ZM74.58,41.34h-4.86v4.89h4.86v-4.89ZM79.21,51.93h-4.86v4.89h4.86v-4.89ZM51.19,17.06h4.85v4.89h-4.85v-4.89ZM53.25,29.42h4.86v4.88h-4.86v-4.88ZM48.06,85.02h4.84v4.88h-4.84v-4.88ZM54.66,78.13h5.89v5.92h-5.89v-5.92ZM74.19,82.55h-4.93v4.96h4.93v-4.96ZM81.96,65.33v-32.52l-15.16-9.14v34.46h7.15v7.2h8.01ZM80.35,73.21h-6.1v6.13h6.1v-6.13ZM73.93,65.47h-6.88v6.92h6.88v-6.92ZM51.64,5.81l-3.53,2.13-8.1,4.88v39.4h8.01v-7.2h7.24v7.2h8.01V12.82l-8.1-4.88-3.53-2.13M47.66,67.58h6.24v6.28h-6.24v-6.28ZM47.96,52.7h7.44v7.48h-7.44v-7.48Z"/>
  </g>
  <g class="cls-15">
    <rect class="cls-14" x="25.32" y="8.48" width="41.01" height="41.08" transform="translate(-7.11 40.83) rotate(-44.92)"/>
  </g>
  <g class="cls-18">
    <rect class="cls-11" x="46.88" y="84.51" width="5.96" height="5.97" transform="translate(-47.22 60.75) rotate(-44.92)"/>
  </g>
  <g class="cls-16">
    <rect class="cls-10" x="27.47" y="81.48" width="7.64" height="7.64" transform="translate(-51.1 46.99) rotate(-44.92)"/>
  </g>
  <g class="cls-17">
    <rect class="cls-9" x="8.33" y="24.44" width="40.15" height="40.2" transform="translate(-23.16 33.06) rotate(-44.92)"/>
  </g>
  <g class="cls-23">
    <rect class="cls-6" x="46.04" y="67.14" width="7.24" height="7.24" transform="translate(-35.47 55.72) rotate(-44.92)"/>
  </g>
  <g class="cls-20">
    <rect class="cls-7" x="39.02" y="58.5" width="9.31" height="9.31" transform="translate(-31.84 49.28) rotate(-44.92)"/>
  </g>
  <g class="cls-19">
    <rect class="cls-5" x="45.87" y="52.54" width="7.88" height="7.89" transform="translate(-25.34 51.66) rotate(-44.92)"/>
  </g>
  <g class="cls-22">
    <rect class="cls-4" x="27.3" y="63.97" width="10.55" height="10.55" transform="translate(-39.39 43.22) rotate(-44.92)"/>
  </g>
  <g class="cls-21">
    <rect class="cls-8" x="20.94" y="72.48" width="8.83" height="8.83" transform="translate(-46.89 40.35) rotate(-44.92)"/>
  </g>
</svg>