<?xml version="1.0" encoding="UTF-8"?>
<svg id="Layer_1" xmlns="http://www.w3.org/2000/svg" version="1.1" viewBox="0 0 27.67 23.83">
  <!-- Generator: Adobe Illustrator 29.3.1, SVG Export Plug-In . SVG Version: 2.1.0 Build 151)  -->
  <path d="M9.99,2.31c0-1.27,1.03-2.31,2.31-2.31s2.31,1.03,2.31,2.31-1.03,2.31-2.31,2.31-2.31-1.03-2.31-2.31ZM.47,9.55c.25-.59.92-.86,1.51-.62l.94.39,1.1-1.83c.78-1.31,2.2-2.11,3.72-2.11,2.47,0,4.66,1.58,5.44,3.93l1.66,4.98,3.81,1.59,1.64-2.19c.31-.41.8-.64,1.31-.61s.98.31,1.24.74l4.61,7.69c.28.48.29,1.07.02,1.55s-.78.78-1.34.78h-12.3c-.53,0-1.03-.27-1.31-.73s-.31-1.02-.07-1.49l.77-1.54c.26-.52.79-.85,1.37-.85h1.54l1.08-1.44L1.1,11.06c-.59-.25-.86-.92-.62-1.51h0ZM4.45,13.96l5.38,2.31c.57.24.93.8.93,1.41v4.61c0,.85-.69,1.54-1.54,1.54s-1.54-.69-1.54-1.54v-3.6l-2.91-1.25-1.78,5.33c-.27.81-1.14,1.24-1.95.97s-1.24-1.14-.98-1.94l2.31-6.92.53-1.59s1.54.66,1.54.66Z"/>
</svg>